<svg width="28" height="28" viewBox="0 0 28 28" fill="none" xmlns="http://www.w3.org/2000/svg">
<path d="M27.4995 27.4998V17.6114C27.4995 12.7516 26.4533 9.03918 20.7833 9.03918C18.0495 9.03918 16.227 10.5241 15.4845 11.9416H15.417V9.47792H10.0508V27.4998H15.6533V18.5564C15.6533 16.1939 16.092 13.9328 18.9945 13.9328C21.8633 13.9328 21.897 16.5989 21.897 18.6914V27.4661H27.4995V27.4998Z" fill="white"/>
<path d="M0.938965 9.47729H6.54147V27.4992H0.938965V9.47729Z" fill="white"/>
<path d="M3.74 0.500244C1.95125 0.500244 0.5 1.95144 0.5 3.74013C0.5 5.52882 1.95125 7.01377 3.74 7.01377C5.52876 7.01377 6.98001 5.52882 6.98001 3.74013C6.98001 1.95144 5.52876 0.500244 3.74 0.500244Z" fill="white"/>
</svg>
