<svg width="30" height="30" viewBox="0 0 30 30" fill="none" xmlns="http://www.w3.org/2000/svg">
    <path d="M29.9876 10.2803C29.8677 9.49991 28.9986 9.07969 28.3991 8.68949C27.3202 7.96912 26.2712 7.27876 25.1923 6.55839C22.6448 4.84751 20.0673 3.13662 17.5198 1.42574C16.9204 1.03554 16.321 0.615318 15.7216 0.225116C15.302 -0.0750388 14.7326 -0.0750388 14.283 0.225116C12.5747 1.36571 10.8364 2.53631 9.12807 3.6769L1.57549 8.71951C0.916141 9.13972 0.0469953 9.55994 0.0170247 10.4604C-0.0129459 11.4509 0.0170247 12.4714 0.0170247 13.462V18.2644C0.0170247 19.1349 -0.162799 20.1554 0.646406 20.6957C2.56452 22.0164 4.51261 23.277 6.46069 24.5677C8.85834 26.1585 11.256 27.7794 13.6536 29.3702C14.313 29.8204 14.9723 30.3007 15.7815 29.7604C16.4709 29.3102 17.1302 28.8599 17.8195 28.4097C20.4869 26.6388 23.1543 24.8378 25.8217 23.0669L28.7888 21.0859C28.9686 20.9658 29.1784 20.8458 29.3582 20.6957C29.7778 20.3955 29.9576 19.9753 29.9576 19.4651V11.2108C29.9876 10.8806 30.0176 10.5805 29.9876 10.2803C29.9876 10.3403 29.9876 10.2503 29.9876 10.2803ZM16.291 3.70692L26.3911 10.4604L21.8955 13.492L16.291 9.74003V3.70692ZM13.7136 3.70692V9.71002L8.13905 13.462L3.61349 10.4604L13.7136 3.70692ZM2.59449 12.8616L5.80134 15.0228L2.59449 17.1839V12.8616ZM13.7136 26.3386L3.61349 19.5851L8.10908 16.5536L13.6836 20.3055V26.3386H13.7136ZM15.0023 18.0843L10.4468 15.0228L15.0023 11.9612L19.5578 15.0228L15.0023 18.0843ZM16.291 26.3386V20.3355L21.8656 16.5836L26.3611 19.6151L16.291 26.3386ZM27.4101 17.1839L24.2033 15.0228L27.4401 12.8616L27.4101 17.1839Z" fill="white"/>
</svg>
