<svg width="20" height="22" viewBox="0 0 20 22" fill="none" xmlns="http://www.w3.org/2000/svg">
<path d="M18.5402 21.6058C18.152 21.6058 17.7671 21.4538 17.4802 21.15L9.9992 13.2437L2.52159 21.15C1.96794 21.7374 1.04294 21.761 0.458911 21.2074C-0.128495 20.6537 -0.155502 19.7288 0.398145 19.1413L8.93917 10.1142C9.21599 9.82387 9.59747 9.65845 9.9992 9.65845C10.4009 9.65845 10.7824 9.82387 11.0592 10.1142L19.6003 19.1413C20.1539 19.7288 20.1303 20.6504 19.5429 21.204C19.2593 21.4741 18.8981 21.6058 18.5402 21.6058Z" fill="white"/>
<path d="M18.5402 11.9473C18.152 11.9473 17.7671 11.7954 17.4802 11.4916L9.9992 3.5852L2.52159 11.4916C1.96794 12.079 1.04294 12.1026 0.458911 11.549C-0.128495 10.9953 -0.155502 10.0703 0.398145 9.4829L8.93917 0.455746C9.21599 0.165419 9.59747 0 9.9992 0C10.4009 0 10.7824 0.165419 11.0592 0.455746L19.6003 9.4829C20.1539 10.0703 20.1303 10.9919 19.5429 11.5456C19.2593 11.8156 18.8981 11.9473 18.5402 11.9473Z" fill="white"/>
</svg>
